<svg xmlns="http://www.w3.org/2000/svg" width="24" height="24" fill="none" viewBox="0 0 24 24">
  <path fill="#000" d="M5.91 6.142c.879 0 1.663.147 2.353.44a4.13 4.13 0 0 1 1.716 1.276c.469.572.807 1.276 1.012 2.112.22.821.301 1.767.242 2.838l-8.078.079c.067.985.332 1.73.796 2.231.557.587 1.283.88 2.178.88.41 0 .755-.052 1.034-.154a2.08 2.08 0 0 0 .704-.44c.19-.176.337-.374.44-.594.117-.22.212-.44.286-.66l2.75.594a5.263 5.263 0 0 1-.594 1.474c-.25.425-.587.8-1.012 1.122-.425.308-.939.543-1.54.704-.586.176-1.276.264-2.068.264-.953 0-1.804-.132-2.552-.396a5.145 5.145 0 0 1-1.87-1.144A5.02 5.02 0 0 1 .519 14.92c-.264-.733-.396-1.563-.396-2.486 0-.91.125-1.746.374-2.508a5.72 5.72 0 0 1 1.144-2.002 5.001 5.001 0 0 1 1.826-1.32c.718-.308 1.533-.462 2.442-.462Zm13.817 0c1.334 0 2.346.47 3.035 1.408.704.938 1.056 2.413 1.056 4.422V18h-3.19v-5.676c0-1.232-.183-2.127-.55-2.684-.352-.572-.872-.858-1.561-.858-.587 0-1.079.183-1.475.55-.396.367-.696.85-.901 1.452a6.836 6.836 0 0 0-.309 1.98V18h-3.168V6.45h2.596l-.022 3.454h.44c.19-.836.462-1.532.814-2.09.352-.557.793-.976 1.32-1.254.543-.279 1.181-.418 1.915-.418ZM5.953 8.606c-.557 0-1.05.147-1.474.44-.426.293-.755.726-.99 1.298a4.158 4.158 0 0 0-.24.804l5.084-.046a2.984 2.984 0 0 0-.202-1.044c-.205-.499-.507-.865-.902-1.1a2.386 2.386 0 0 0-1.276-.352Z"/>
</svg>
