<svg xmlns="http://www.w3.org/2000/svg" width="24" height="24" fill="none" viewBox="0 0 24 24">
  <path fill="#000" d="M8.58 3.226c.674 0 1.283.088 1.825.264.557.162 1.005.367 1.342.616l-.198 2.86a5.051 5.051 0 0 0-1.188-.616 3.647 3.647 0 0 0-1.255-.242c-.44 0-.806.117-1.1.352-.278.235-.417.616-.417 1.144 0 .366.073.66.22.88.16.206.352.36.572.462.234.088.462.147.681.176h2.641v2.486H8.688V19H5.61v-7.392H3.783V9.276l3.08.132V8.99c-.513-.117-.939-.3-1.276-.55a2.328 2.328 0 0 1-.704-.946 3.11 3.11 0 0 1-.22-1.166c0-.63.161-1.173.483-1.628.323-.47.778-.829 1.365-1.078.586-.264 1.276-.396 2.068-.396Zm10.832 3.96c.132 0 .271.007.418.022.161 0 .345.022.55.066l-.132 3.366a2.798 2.798 0 0 0-.726-.22 4.342 4.342 0 0 0-.704-.066c-.572 0-1.064.132-1.474.396-.41.264-.748.645-1.012 1.144-.25.483-.418 1.078-.506 1.782V19h-3.19V7.45h2.618l.022 3.938h.418c.118-.983.315-1.782.594-2.398.293-.616.697-1.07 1.21-1.364.513-.293 1.151-.44 1.914-.44Z"/>
</svg>
