<svg width="24" height="24" viewBox="0 0 24 24" fill="none" xmlns="http://www.w3.org/2000/svg">
<g clip-path="url(#clip0_303_8)">
<mask id="mask0_303_8" style="mask-type:alpha" maskUnits="userSpaceOnUse" x="0" y="0" width="23" height="23">
<path d="M4.02145e-06 23L0 0L23 -4.02145e-06L4.02145e-06 23Z" fill="white"/>
</mask>
<g mask="url(#mask0_303_8)">
<path fill-rule="evenodd" clip-rule="evenodd" d="M0 0H24V24H0V0Z" fill="white"/>
<path fill-rule="evenodd" clip-rule="evenodd" d="M0 0H8.00156V24H0V0Z" fill="#00267F"/>
<path fill-rule="evenodd" clip-rule="evenodd" d="M15.9985 0H24.0001V24H15.9985V0Z" fill="#F31830"/>
</g>
<mask id="mask1_303_8" style="mask-type:alpha" maskUnits="userSpaceOnUse" x="1" y="1" width="23" height="23">
<path d="M24 1L24 24L1 24L24 1Z" fill="white"/>
</mask>
<g mask="url(#mask1_303_8)">
<path d="M0 0H24V24H0V0Z" fill="#012169"/>
<path d="M24 0V3L15.0938 12L24 20.7656V24H20.8594L11.9062 15.1875L3.1875 24H0V20.8125L8.71875 12.0469L0 3.46875V0H2.90625L11.9062 8.8125L20.625 0H24Z" fill="white"/>
<path d="M8.25 0V24H15.75V0H8.25ZM0 8.25V15.75H24V8.25H0Z" fill="white"/>
<path d="M0 9.75V14.25H24V9.75H0ZM9.75 0V24H14.25V0H9.75Z" fill="#C8102E"/>
</g>
</g>
<defs>
<clipPath id="clip0_303_8">
<rect width="24" height="24" rx="12" fill="white"/>
</clipPath>
</defs>
</svg>
